# xmcd
#
# Track frame offsets:
#	150
#	11902
#	24151
#	40870
#	54533
#	78062
#	92575
#	106578
#	118933
#	134533
#	145328
#	160644
#
# Disc length: 2331 seconds
#
# Revision: 0
# Processed by: cddbd v1.5.1PL0 Copyright (c) Steve Scherf et al.
# Submitted via: dBpowerAMP V4.0
#
DISCID=8e09190c
DTITLE=Sweeney-Killeen - FUN!
DYEAR=2002
DGENRE=Country
TTITLE0=FUN!
TTITLE1=Strong Enough to Bend
TTITLE2=Tide is High
TTITLE3=Plastic Princess
TTITLE4=Working Man
TTITLE5=Can`t Keep A Good Girl Down
TTITLE6=One Way Ticket
TTITLE7=Blundstone Blues
TTITLE8=Fields of Gold
TTITLE9=The One That Got Away (Got Away With My Heart)
TTITLE10=Love Will See You Through
TTITLE11=Queen of Hearts
EXTD=
EXTT0=
EXTT1=
EXTT2=
EXTT3=
EXTT4=
EXTT5=
EXTT6=
EXTT7=
EXTT8=
EXTT9=
EXTT10=
EXTT11=
PLAYORDER=
